Coordinates
version=1
nRows=12
nColumns=46
inDegrees=yes

Units are S.I. units (second, meters, Newtons, ...)
Angles are in degrees.

endheader
time	pelvis_tilt	pelvis_list	pelvis_rotation	pelvis_tx	pelvis_ty	pelvis_tz	bb_angle	bb_tx	bb_ty	bb_tz	hip_flexion_r	hip_adduction_r	hip_rotation_r	knee_angle_r	knee_angle_r_beta	ankle_angle_r	subtalar_angle_r	mtp_angle_r	crank_angle_r	hip_flexion_l	hip_adduction_l	hip_rotation_l	knee_angle_l	knee_angle_l_beta	ankle_angle_l	subtalar_angle_l	mtp_angle_l	crank_angle_l	lumbar_extension	lumbar_bending	lumbar_rotation	arm_flex_r	arm_add_r	arm_rot_r	elbow_flex_r	pro_sup_r	wrist_flex_r	wrist_dev_r	arm_flex_l	arm_add_l	arm_rot_l	elbow_flex_l	pro_sup_l	wrist_flex_l	wrist_dev_l
      0.00500000	    -20.50670436	      6.58736618	      4.86850599	      0.14001208	      1.11312385	     -0.27229607	      0.00000000	      0.50000000	      0.00000000	      0.25000000	     50.21918258	    -11.77160794	      1.35127357	     57.88536351	      1.01029018	      5.32652633	    -10.63307181	      0.00000000	      0.00000000	     91.32038787	     -4.85432377	     -5.76681303	     97.35461298	      1.69915854	     20.91914471	      3.53191917	      0.00000000	      0.00000000	    -37.86727568	     -1.11931323	     -9.84440177	     76.73294767	     -3.54180845	     36.26931591	     24.07454724	     41.33790833	      0.00000000	      0.00000000	     75.97181512	    -12.70744781	     42.51619084	     24.64267029	     44.63385200	      0.00000000	      0.00000000
      0.01000000	    -20.54026698	      6.56563290	      4.85823716	      0.14005053	      1.11307531	     -0.27230247	      0.00000000	      0.50000000	      0.00000000	      0.25000000	     50.24972713	    -11.74460274	      1.35220131	     57.88460116	      1.01027688	      5.30817867	    -10.67859117	      0.00000000	      0.00000000	     91.34988206	     -4.86950420	     -5.75416456	     97.34739845	      1.69903262	     20.90477410	      3.50160397	      0.00000000	      0.00000000	    -37.80436109	     -1.09972514	     -9.85243956	     76.68172551	     -3.02936510	     34.40200106	     23.78300018	     41.26286353	      0.00000000	      0.00000000	     75.67478168	    -12.21214634	     40.09502890	     24.71957690	     44.23329816	      0.00000000	      0.00000000
      0.01500000	    -20.51957941	      6.58648902	      4.86973916	      0.14002805	      1.11310898	     -0.27231262	      0.00000000	      0.50000000	      0.00000000	      0.25000000	     50.22803750	    -11.77343148	      1.35214005	     57.89864188	      1.01052193	      5.35679222	    -10.63051548	      0.00000000	      0.00000000	     91.31029068	     -4.84841204	     -5.77060204	     97.32307494	      1.69860810	     20.96111155	      3.54490146	      0.00000000	      0.00000000	    -37.83246907	     -1.12668219	     -9.81683620	     76.67907887	     -3.48490874	     35.95541809	     24.05970144	     41.53542898	      0.00000000	      0.00000000	     75.96146916	    -12.52750543	     42.27780565	     24.53452777	     44.60068418	      0.00000000	      0.00000000
      0.02000000	    -20.54377856	      6.54236299	      4.87606589	      0.14014884	      1.11321329	     -0.27217002	      0.00000000	      0.50000000	      0.00000000	      0.25000000	     50.18532107	    -11.69393113	      1.34491165	     57.81741913	      1.00910433	      5.31668763	    -10.82789070	      0.00000000	      0.00000000	     91.31210290	     -4.89068626	     -5.74716238	     97.29361449	      1.69809391	     20.99526872	      3.61460505	      0.00000000	      0.00000000	    -37.80716540	     -1.07638398	     -9.87024123	     76.61481762	     -3.07544913	     34.43993926	     24.02492320	     41.44282637	      0.00000000	      0.00000000	     75.73799007	    -12.23802041	     40.42130628	     24.66073375	     44.28295647	      0.00000000	      0.00000000
      0.02500000	    -20.52637566	      6.54286061	      4.89609567	      0.14013274	      1.11330005	     -0.27223429	      0.00000000	      0.50000000	      0.00000000	      0.25000000	     50.15198940	    -11.71279416	      1.33514611	     57.80851568	      1.00894893	      5.33686549	    -10.72991591	      0.00000000	      0.00000000	     91.27372124	     -4.83847723	     -5.74525256	     97.26008239	      1.69750867	     20.99985851	      3.53883264	      0.00000000	      0.00000000	    -37.82451143	     -1.05560049	     -9.86730105	     76.69925663	     -2.86985235	     33.86571611	     23.68603474	     41.27949020	      0.00000000	      0.00000000	     75.70429449	    -11.95642637	     39.72857434	     24.57060167	     44.00019050	      0.00000000	      0.00000000
      0.03000000	    -20.56034655	      6.60611770	      4.89596202	      0.14016143	      1.11325722	     -0.27229320	      0.00000000	      0.50000000	      0.00000000	      0.25000000	     50.20962695	    -11.77910357	      1.36646781	     57.83338874	      1.00938305	      5.35224358	    -10.71456834	      0.00000000	      0.00000000	     91.27007869	     -4.83368106	     -5.81412160	     97.23315266	      1.69703866	     21.06660134	      3.63532389	      0.00000000	      0.00000000	    -37.77957016	     -1.10990285	     -9.91272127	     76.60744624	     -2.72415975	     33.43004546	     23.74826893	     41.22006960	      0.00000000	      0.00000000	     75.64894025	    -11.83911580	     39.17445371	     24.61217742	     43.82837043	      0.00000000	      0.00000000
      0.03500000	    -20.58726029	      6.60976439	      4.92211749	      0.14012253	      1.11318719	     -0.27238630	      0.00000000	      0.50000000	      0.00000000	      0.25000000	     50.24842462	    -11.81234811	      1.35826436	     57.86956996	      1.01001453	      5.41522314	    -10.65180950	      0.00000000	      0.00000000	     91.29598310	     -4.77780269	     -5.81609945	     97.21728622	      1.69676173	     21.02618968	      3.47271227	      0.00000000	      0.00000000	    -37.74061043	     -1.10742298	     -9.87477941	     76.63045488	     -2.71385774	     33.39120922	     23.55314353	     41.18810976	      0.00000000	      0.00000000	     75.69197572	    -11.64656211	     39.22166717	     24.44508825	     43.73166011	      0.00000000	      0.00000000
      0.04000000	    -20.58096531	      6.62570850	      4.93632906	      0.14013717	      1.11324752	     -0.27239222	      0.00000000	      0.50000000	      0.00000000	      0.25000000	     50.23209875	    -11.84148947	      1.33977492	     57.86183544	      1.00987954	      5.38537555	    -10.64779786	      0.00000000	      0.00000000	     91.26234842	     -4.75052234	     -5.82100762	     97.18987545	      1.69628333	     21.09396156	      3.54399427	      0.00000000	      0.00000000	    -37.75593350	     -1.14264023	     -9.80566732	     76.51235456	     -3.30044156	     34.98511298	     24.09704196	     41.50497638	      0.00000000	      0.00000000	     76.06589095	    -12.00392544	     41.97347644	     24.19387771	     44.26289250	      0.00000000	      0.00000000
      0.04500000	    -20.60151815	      6.61435021	      4.91594919	      0.14012799	      1.11323095	     -0.27238104	      0.00000000	      0.50000000	      0.00000000	      0.25000000	     50.25375564	    -11.81109533	      1.35626647	     57.85916687	      1.00983296	      5.40062929	    -10.66624556	      0.00000000	      0.00000000	     91.26704206	     -4.77270290	     -5.81572551	     97.17124777	      1.69595821	     21.10295612	      3.50669392	      0.00000000	      0.00000000	    -37.72037953	     -1.12518630	     -9.81323190	     76.56861178	     -2.85809554	     33.67991127	     23.77006808	     41.27905624	      0.00000000	      0.00000000	     75.88997234	    -11.65258114	     40.31238965	     24.24230545	     43.90584840	      0.00000000	      0.00000000
      0.05000000	    -20.58589059	      6.62061457	      4.91434239	      0.14010889	      1.11326724	     -0.27236726	      0.00000000	      0.50000000	      0.00000000	      0.25000000	     50.23572485	    -11.81217280	      1.36772940	     57.85914120	      1.00983252	      5.42796941	    -10.63543980	      0.00000000	      0.00000000	     91.23664016	     -4.76727664	     -5.82450596	     97.15157331	      1.69561483	     21.12924497	      3.51665960	      0.00000000	      0.00000000	    -37.73979084	     -1.14461903	     -9.76636339	     76.53705410	     -3.12109868	     34.41760491	     24.00672009	     41.49011229	      0.00000000	      0.00000000	     76.13779899	    -11.76369693	     41.69389453	     23.96867475	     44.16533269	      0.00000000	      0.00000000
      0.05500000	    -20.62322001	      6.60365265	      4.90119689	      0.14014127	      1.11321289	     -0.27235546	      0.00000000	      0.50000000	      0.00000000	      0.25000000	     50.27661666	    -11.78728242	      1.36703177	     57.86311092	      1.00990180	      5.39386670	    -10.67719512	      0.00000000	      0.00000000	     91.26453414	     -4.77359398	     -5.80282176	     97.14259901	      1.69545820	     21.16141754	      3.47397875	      0.00000000	      0.00000000	    -37.67543384	     -1.11895641	     -9.77015289	     76.52831547	     -2.63823866	     32.83929655	     23.70330024	     41.32636465	      0.00000000	      0.00000000	     75.89498979	    -11.34112018	     39.57415902	     24.09995665	     43.81616073	      0.00000000	      0.00000000
      0.06000000	    -20.60489080	      6.53975137	      4.81956100	      0.14017432	      1.11319867	     -0.27226653	      0.00000000	      0.50000000	      0.00000000	      0.25000000	     50.24419433	    -11.65168975	      1.40586612	     57.83414982	      1.00939633	      5.38549931	    -10.76130931	      0.00000000	      0.00000000	     91.25767347	     -4.86925513	     -5.72566212	     97.17161650	      1.69596465	     21.25191205	      3.63940482	      0.00000000	      0.00000000	    -37.68331261	     -1.07389891	     -9.73610707	     76.49546778	     -2.32190800	     31.89745425	     23.77330117	     41.11645737	      0.00000000	      0.00000000	     75.74689614	    -11.19290858	     38.30013985	     24.32014557	     43.45666628	      0.00000000	      0.00000000
